<?xml version="1.0" encoding="UTF-8" standalone="no"?>
<svg
   xmlns:dc="http://purl.org/dc/elements/1.1/"
   xmlns:cc="http://creativecommons.org/ns#"
   xmlns:rdf="http://www.w3.org/1999/02/22-rdf-syntax-ns#"
   xmlns:svg="http://www.w3.org/2000/svg"
   xmlns="http://www.w3.org/2000/svg"
   id="svg1235"
   version="1.1"
   viewBox="0 0 24.711836 27.05876"
   height="48px"
   width="48px">
  <defs
     id="defs1229" />
  <metadata
     id="metadata1232">
    <rdf:RDF>
      <cc:Work
         rdf:about="">
        <dc:format>image/svg+xml</dc:format>
        <dc:type
           rdf:resource="http://purl.org/dc/dcmitype/StillImage" />
        <dc:title></dc:title>
      </cc:Work>
    </rdf:RDF>
  </metadata>
  <g
     transform="translate(-68.3495,-142.65371)"
     id="layer1">
    <path
       d="m 90.885403,147.79298 -8.00407,-4.62033 c -0.598487,-0.34573 -1.386981,-0.51894 -2.175933,-0.51894 -0.788917,0 -1.577834,0.17321 -2.17618,0.51894 l -8.003363,4.62033 c -1.196834,0.69144 -2.176357,2.38689 -2.176357,3.76872 v 9.24243 c 0,1.38218 0.979523,3.07798 2.176357,3.76907 l 8.003363,4.62139 c 0.598346,0.34502 1.387687,0.51788 2.17618,0.51788 0.788952,0 1.577446,-0.17286 2.175933,-0.51788 l 8.00407,-4.62139 c 1.196622,-0.69109 2.175933,-2.38689 2.175933,-3.76907 v -9.24243 c 0,-1.38183 -0.979311,-3.07728 -2.175933,-3.76872"
       style="fill:#4c97ff;fill-opacity:1;fill-rule:nonzero;stroke:none;stroke-width:0.03527778"
       id="path958" />
    <path
       d="m 75.198786,162.47241 h 3.131996 v -4.70711 h -3.131996 z m 3.941163,0 h 3.132032 v -12.57829 h -3.132032 z m 3.941198,-9.84073 v 9.84073 h 3.130479 v -9.84073 h -3.130479"
       style="fill:#ffffff;fill-opacity:1;fill-rule:nonzero;stroke:none;stroke-width:0.05527778"
       id="path960" />
  </g>
</svg>
